<?xml version="1.0" encoding="UTF-8"?>
<svg id="Layer_2" data-name="Layer 2" xmlns="http://www.w3.org/2000/svg" viewBox="0 0 23.6 9.47">
  <defs>
    <style>
      .cls-1, .cls-2, .cls-3 {
        fill: #fff;
      }

      .cls-2 {
        stroke-width: .25px;
      }

      .cls-2, .cls-3 {
        stroke: #fff;
        stroke-miterlimit: 10;
      }

      .cls-4 {
        fill: #e71f20;
      }
    </style>
  </defs>
  <g id="Layer_1-2" data-name="Layer 1">
    <g>
      <g>
        <path className="cls-3" d="m3.9,7.06c.17-.24.34-.48.51-.71.26-.34.53-.66.82-.98l-.16-2.31h-1.44l-1.41,2.91-.11-2.91H.54l.41,5.91h1.27l1.59-3.28.09,1.36Z"/>
        <path className="cls-3" d="m4.09,8.08s-.07.08-.11.12l.05.77h1.28l1.76-3.64c-.23.17-.44.34-.65.5-1.03.84-1.84,1.69-2.34,2.25Z"/>
        <path className="cls-1" d="m7.89,3.06h-1.31l-.76,1.69c.12-.12.25-.24.37-.35.53-.48,1.1-.93,1.7-1.33Z"/>
        <path className="cls-3" d="m8.06,4.65l-.9,4.32h1.5l1.09-5.26c-.61.28-1.18.6-1.7.94Z"/>
        <path className="cls-3" d="m13.51,2.97l-.65,3.14-1.39-3.05h0c-.49.14-.97.32-1.42.52l-1.12,5.39h1.47l.63-3.05,1.39,3.05h1.33l1.21-5.86-.61-.44-.83.3Z"/>
        <path className="cls-3" d="m13.22,2.47l.21-.67-.53-.69c-2.24.53-7.05,2.29-9.85,7.86,0,0,4.23-5.87,10.17-6.5Z"/>
        <polygon className="cls-4" points="16.09 1.32 15.06 1.02 14.72 0 14.11 .89 13.03 .9 13.69 1.75 13.37 2.77 14.38 2.41 15.26 3.04 15.22 1.96 16.09 1.32"/>
      </g>
      <g>
        <path className="cls-2" d="m16.67,3.05l-1,4.77h2.83l-.23,1.08h-4.12l1.22-5.86h1.3Z"/>
        <path className="cls-2" d="m17.8,3.05h1.32l.88,2.49,1.82-2.49h1.52l-2.86,3.64-.45,2.21h-1.3l.47-2.27-1.4-3.58Z"/>
      </g>
    </g>
  </g>
</svg>