<svg width="87" height="34" viewBox="0 0 87 34" fill="none" xmlns="http://www.w3.org/2000/svg">
<path d="M13.3215 26.3485C13.957 25.4527 14.5926 24.557 15.2282 23.6986C16.2002 22.4297 17.2096 21.2354 18.2938 20.0412L17.6957 11.4199H12.3121L7.04063 22.2804L6.62938 11.4199H0.759766L2.29259 33.4768H7.04063L12.985 21.2354L13.3215 26.3111V26.3485Z" fill="#1A1A1A"/>
<path d="M14.0319 30.1555C14.0319 30.1555 13.7701 30.454 13.6206 30.6033L13.8075 33.4771H18.593L25.1729 19.8921C24.313 20.5266 23.5279 21.161 22.7428 21.7582C18.892 24.8931 15.8638 28.0655 13.9945 30.1555H14.0319Z" fill="#1A1A1A"/>
<path d="M28.2759 11.4199H23.3783L20.537 17.7272C20.9856 17.2794 21.4716 16.8315 21.9203 16.421C23.9017 14.6296 26.0327 12.9501 28.2759 11.4572V11.4199Z" fill="#1A1A1A"/>
<path d="M28.874 17.3544L25.5093 33.4772H31.1172L35.1923 13.8462C32.9117 14.8912 30.7807 16.0855 28.8366 17.3544H28.874Z" fill="#1A1A1A"/>
<path d="M49.2495 11.0845L46.8194 22.8034L41.6228 11.4204C39.7909 11.9429 37.9963 12.6147 36.3139 13.3611L32.1267 33.4773H37.6225L39.9778 22.0943L45.1744 33.4773H50.1468L54.6705 11.607L52.39 9.96484L49.2869 11.0845H49.2495Z" fill="#1A1A1A"/>
<path d="M48.1653 9.21828L48.9504 6.71775L46.969 4.14258C38.5945 6.12061 20.6118 12.6892 10.1437 33.4771C10.1437 33.4771 25.958 11.5695 48.1653 9.21828Z" fill="#1A1A1A"/>
<path d="M58.8951 4.92642L55.0443 3.80678L53.7732 0L51.53 3.3216L47.4923 3.35892L49.9598 6.53123L48.726 10.338L52.502 8.99444L55.792 11.3457L55.6799 7.31498L58.8951 4.92642Z" fill="#E71F20"/>
<path d="M61.0635 11.383L57.3249 29.1853H67.9052L67.0453 33.216H51.6422L56.2033 11.3457H61.0635V11.383Z" fill="#1A1A1A" stroke="#1A1A1A" stroke-width="0.25" stroke-miterlimit="10"/>
<path d="M65.2882 11.3828H70.2232L73.5131 20.6758L80.3174 11.3828H86.0001L75.3077 24.9678L73.6253 33.2158H68.7651L70.5223 24.7439L65.2882 11.3828Z" fill="#1A1A1A" stroke="#1A1A1A" stroke-width="0.25" stroke-miterlimit="10"/>
</svg>
