<svg width="374" height="374" viewBox="0 0 374 374" fill="none" xmlns="http://www.w3.org/2000/svg">
<path d="M374 286.034H0V286.221H374V286.034Z" fill="#C2C2C2"/>
<path d="M336.526 298.073H271.524V298.26H336.526V298.073Z" fill="#C2C2C2"/>
<path d="M274.036 291.127H267.533V291.314H274.036V291.127Z" fill="#C2C2C2"/>
<path d="M223.888 297.33H209.533V297.517H223.888V297.33Z" fill="#C2C2C2"/>
<path d="M55.3938 292.384H39.2393V292.571H55.3938V292.384Z" fill="#C2C2C2"/>
<path d="M82.9449 292.384H62.0532V292.571H82.9449V292.384Z" fill="#C2C2C2"/>
<path d="M190.37 295.449H155.335V295.636H190.37V295.449Z" fill="#C2C2C2"/>
<path d="M177.286 252.674H32.8482C30.4942 252.674 28.5786 250.759 28.5786 248.405V45.3736C28.5786 43.0196 30.4942 41.104 32.8482 41.104H177.286C179.639 41.104 181.555 43.0196 181.555 45.3736V248.405C181.555 250.759 179.639 252.674 177.286 252.674ZM32.8482 41.2918C30.5967 41.2918 28.7656 43.1229 28.7656 45.3743V248.405C28.7656 250.657 30.5967 252.488 32.8482 252.488H177.286C179.537 252.488 181.368 250.657 181.368 248.405V45.3736C181.368 43.1229 179.537 41.291 177.286 41.291L32.8482 41.2918Z" fill="#C2C2C2"/>
<path d="M339.076 252.674H194.638C192.285 252.674 190.37 250.759 190.37 248.405V45.3736C190.37 43.0196 192.285 41.104 194.638 41.104H339.076C341.43 41.104 343.345 43.0196 343.345 45.3736V248.405C343.346 250.759 341.43 252.674 339.076 252.674ZM194.638 41.2918C192.388 41.2918 190.557 43.1229 190.557 45.3743V248.405C190.557 250.657 192.388 252.488 194.638 252.488H339.076C341.327 252.488 343.158 250.657 343.158 248.405V45.3736C343.158 43.1229 341.327 41.291 339.076 41.291L194.638 41.2918Z" fill="#C2C2C2"/>
<path d="M187.338 178.774H164.196V286.034H187.338V178.774Z" fill="#ADADAD"/>
<path d="M182.943 286.034H187.338V273.531H178.333L182.943 286.034Z" fill="#A0A0A0"/>
<path d="M71.0105 178.774H47.8682V286.034H71.0105V178.774Z" fill="#ADADAD"/>
<path d="M187.338 178.774H67.1748V278.362H187.338V178.774Z" fill="#A0A0A0"/>
<path d="M183.928 182.188H70.585V206.809H183.929L183.928 182.188Z" fill="#ADADAD"/>
<path d="M183.928 209.633H128.731V262.732H183.928V209.633Z" fill="#ADADAD"/>
<path d="M125.781 209.633H70.585V262.732H125.781V209.633Z" fill="#ADADAD"/>
<path d="M113.436 219.007C113.436 221.165 115.185 222.915 117.343 222.915C119.501 222.915 121.251 221.165 121.251 219.007C121.251 216.849 119.501 215.1 117.343 215.1C115.185 215.1 113.436 216.849 113.436 219.007Z" fill="#DFDFDF"/>
<path d="M133.263 219.007C133.263 221.165 135.012 222.915 137.17 222.915C139.328 222.915 141.078 221.165 141.078 219.007C141.078 216.849 139.328 215.1 137.17 215.1C135.012 215.1 133.263 216.849 133.263 219.007Z" fill="#DFDFDF"/>
<path d="M71.5708 286.034H67.1748V273.531H76.1792L71.5708 286.034Z" fill="#A0A0A0"/>
<path d="M161.046 194.677C161.046 196.835 162.796 198.585 164.954 198.585C167.112 198.585 168.862 196.835 168.862 194.677C168.862 192.519 167.112 190.77 164.954 190.77C162.795 190.77 161.046 192.519 161.046 194.677Z" fill="#DFDFDF"/>
<path d="M86.6841 194.677C86.6841 196.835 88.4337 198.585 90.5916 198.585C92.7496 198.585 94.4992 196.835 94.4992 194.677C94.4992 192.519 92.7496 190.77 90.5916 190.77C88.4337 190.77 86.6841 192.519 86.6841 194.677Z" fill="#DFDFDF"/>
<path d="M324.767 60.2896H199.479V164.403H324.767V60.2896Z" fill="#C2C2C2"/>
<path d="M327.679 60.2896H200.84V164.403H327.679V60.2896Z" fill="#D6D6D6"/>
<path d="M335.405 164.403H199.479V167.853H335.405V164.403Z" fill="#C2C2C2"/>
<path d="M331.959 164.403H213.774V167.853H331.959V164.403Z" fill="#D6D6D6"/>
<path d="M323.602 160.139V64.5522L204.919 64.5522V160.139L323.602 160.139Z" fill="#DFDFDF"/>
<path d="M230.216 160.139L265.03 64.5522H281.465L246.651 160.139H230.216Z" fill="#F5F5F5"/>
<path d="M250.181 160.139L284.995 64.5522H291.403L256.588 160.139H250.181Z" fill="#F5F5F5"/>
<path d="M270.792 160.139L305.606 64.5522H312.013L277.199 160.139H270.792Z" fill="#F5F5F5"/>
<path d="M323.601 160.14V64.5527H323.083V160.14H323.601Z" fill="#C2C2C2"/>
<path opacity="0.5" d="M328.643 69.4927H203.356L202.981 66.209H328.268L328.643 69.4927Z" fill="#C2C2C2"/>
<path opacity="0.5" d="M328.643 73.5869H203.356L202.981 70.3032H328.268L328.643 73.5869Z" fill="#C2C2C2"/>
<path opacity="0.5" d="M328.643 77.6807H203.356L202.981 74.397H328.268L328.643 77.6807Z" fill="#C2C2C2"/>
<path opacity="0.5" d="M328.643 81.7744H203.356L202.981 78.4907H328.268L328.643 81.7744Z" fill="#C2C2C2"/>
<path opacity="0.5" d="M328.643 85.8672H203.356L202.981 82.5835H328.268L328.643 85.8672Z" fill="#C2C2C2"/>
<path opacity="0.5" d="M328.643 89.9615H203.356L202.981 86.6777H328.268L328.643 89.9615Z" fill="#C2C2C2"/>
<path opacity="0.5" d="M328.643 94.0552H203.356L202.981 90.7715H328.268L328.643 94.0552Z" fill="#C2C2C2"/>
<path opacity="0.5" d="M328.643 98.149H203.356L202.981 94.8652H328.268L328.643 98.149Z" fill="#C2C2C2"/>
<path opacity="0.5" d="M328.643 102.242H203.356L202.981 98.958H328.268L328.643 102.242Z" fill="#C2C2C2"/>
<path opacity="0.5" d="M328.643 106.335H203.356L202.981 103.052H328.268L328.643 106.335Z" fill="#C2C2C2"/>
<path opacity="0.5" d="M328.643 110.43H203.356L202.981 107.146H328.268L328.643 110.43Z" fill="#C2C2C2"/>
<path opacity="0.5" d="M328.643 114.523H203.356L202.981 111.24H328.268L328.643 114.523Z" fill="#C2C2C2"/>
<path opacity="0.5" d="M328.643 118.616H203.356L202.981 115.333H328.268L328.643 118.616Z" fill="#C2C2C2"/>
<path opacity="0.5" d="M328.643 122.71H203.356L202.981 119.426H328.268L328.643 122.71Z" fill="#C2C2C2"/>
<path d="M232.281 202.221H302.786V190.769H232.281V202.221Z" fill="#C2C2C2"/>
<path d="M232.283 286.034L239.46 202.222H249.128L235.156 286.034H232.283Z" fill="#898989"/>
<path d="M302.785 286.034L295.608 202.222H285.94L299.912 286.034H302.785Z" fill="#898989"/>
<path d="M276.406 286.034L270.461 202.222H260.793L273.533 286.034H276.406Z" fill="#898989"/>
<path d="M78.9227 160.991C83.1751 160.69 86.1634 156.983 85.5986 152.712L80.6072 114.985C80.0425 110.715 76.1372 107.497 71.8855 107.799C67.6331 108.101 64.6449 111.808 65.2096 116.078L70.201 153.805C70.7658 158.076 74.6703 161.293 78.9227 160.991Z" fill="#D6D6D6"/>
<path d="M83.2875 158.207C86.2832 158.956 88.9865 157.221 89.3261 154.332L92.3256 128.808C92.6652 125.918 90.5124 122.969 87.5167 122.22C84.5209 121.471 81.8177 123.206 81.4781 126.095L78.4786 151.619C78.139 154.509 80.2925 157.458 83.2875 158.207Z" fill="#A0A0A0"/>
<path d="M77.9176 162.094C75.1508 162.843 71.9179 161.108 70.6964 158.218L59.9073 132.694C58.6858 129.805 59.9387 126.856 62.7056 126.107C65.4724 125.358 68.7053 127.093 69.9267 129.982L80.7159 155.506C81.9374 158.395 80.6845 161.345 77.9176 162.094Z" fill="#ADADAD"/>
<path d="M68.0363 178.774H91.5265L96.4252 150.811H63.1377L68.0363 178.774Z" fill="#ADADAD"/>
<path d="M61.3523 154.802H98.21V146.82H61.3523V154.802Z" fill="#898989"/>
<path d="M187 319.816C267.097 319.816 332.029 316.024 332.029 311.346C332.029 306.668 267.097 302.876 187 302.876C106.903 302.876 41.9712 306.668 41.9712 311.346C41.9712 316.024 106.903 319.816 187 319.816Z" fill="#D6D6D6"/>
<path d="M235.826 305.194L229.835 305.099L230.209 291.172L236.2 291.266L235.826 305.194Z" fill="#FF8B7B"/>
<path d="M229.765 304.406L236.311 304.508C236.556 304.512 236.748 304.685 236.774 304.926L237.344 310.281C237.403 310.836 236.923 311.354 236.359 311.335C234.002 311.258 230.606 311.066 227.638 311.019C224.168 310.964 224.506 311.107 220.437 311.043C217.976 311.004 217.579 308.502 218.635 308.292C223.443 307.338 223.928 307.288 228.267 304.85C228.739 304.585 229.247 304.397 229.765 304.406Z" fill="#263238"/>
<path d="M228.291 126.096C227.468 128.232 226.572 130.16 225.644 132.158C224.702 134.131 223.711 136.082 222.638 138.002C220.488 141.844 218.124 145.608 215.139 149.169L214.829 149.54C214.659 149.729 214.509 149.906 214.313 150.093C213.93 150.462 213.5 150.83 212.956 151.158C212.437 151.49 211.793 151.763 211.134 151.944C210.466 152.11 209.76 152.187 209.121 152.137C207.81 152.06 206.812 151.64 206.008 151.218C205.206 150.783 204.583 150.306 204.034 149.831C202.946 148.88 202.131 147.908 201.407 146.933C200.683 145.958 200.047 144.985 199.46 144.003C197.148 140.058 195.487 136.075 194.097 131.867L198.216 130.032C199.296 131.751 200.409 133.54 201.57 135.225C202.72 136.925 203.894 138.59 205.128 140.115C205.739 140.878 206.361 141.612 206.995 142.262C207.625 142.912 208.273 143.488 208.829 143.873C209.104 144.062 209.357 144.191 209.501 144.23C209.643 144.273 209.669 144.218 209.421 144.167C209.187 144.114 208.757 144.225 208.596 144.316C208.504 144.368 208.471 144.379 208.464 144.375C208.459 144.379 208.469 144.344 208.477 144.336L208.653 144.08C209.768 142.53 210.79 140.822 211.805 139.106C212.799 137.37 213.745 135.575 214.673 133.766C215.586 131.945 216.479 130.102 217.347 128.246C218.222 126.411 219.062 124.475 219.85 122.694L228.291 126.096Z" fill="#FF8B7B"/>
<path d="M230.639 122.519C232.467 128.027 221.64 143.041 221.64 143.041L209.869 135.647C209.869 135.647 212.956 127.986 217.319 122.144C221.8 116.147 228.633 116.475 230.639 122.519Z" fill="#263238"/>
<path opacity="0.2" d="M223.88 128.985C221.554 129.995 217.539 137.798 218.061 140.796L221.637 143.04C221.637 143.04 225.809 137.258 228.532 131.551C226.928 129.86 225.109 128.454 223.88 128.985Z" fill="black"/>
<path d="M198.629 131.647L197.516 124.858L191.055 127.093C191.055 127.093 191.217 132.432 195.555 133.413L198.629 131.647Z" fill="#FF8B7B"/>
<path d="M193.14 120.284L190.674 122.324C190.263 122.664 190.083 123.209 190.213 123.727L191.055 127.093L197.516 124.858L195.237 120.687C194.82 119.923 193.811 119.729 193.14 120.284Z" fill="#FF8B7B"/>
<path opacity="0.2" d="M230.21 291.176L230.016 298.355L236.01 298.449L236.204 291.271L230.21 291.176Z" fill="black"/>
<path d="M257.311 120.084C251.708 142.891 253.93 167.098 253.532 171.997C253.532 171.997 221.416 171.479 221.416 171.476C218.47 136.25 223.661 117.886 223.661 117.886C223.661 117.886 225.706 117.486 228.495 117.198C229.37 117.109 230.314 117.029 231.298 116.978C231.842 116.945 232.395 116.928 232.956 116.916C236.577 116.857 242.515 117.432 246.611 117.931C247.468 118.037 248.342 118.165 249.188 118.302C249.972 118.436 250.743 118.577 251.469 118.721C254.761 119.374 257.311 120.084 257.311 120.084Z" fill="#263238"/>
<path opacity="0.2" d="M250.849 129.868C250.357 132.074 251.396 142.142 253.794 144.626C253.987 141.402 254.278 138.036 254.701 134.595L250.849 129.868Z" fill="black"/>
<path d="M245.814 102.5C244.793 106.817 243.64 114.778 246.607 117.929C244.133 120.118 240.912 122.621 235.69 122.416C230.467 122.211 231.509 118.702 232.955 116.916C237.896 116.113 237.902 112.48 237.173 109.013L245.814 102.5Z" fill="#FF8B7B"/>
<path d="M246.321 117.349C245.761 118.144 243.401 120.525 234.531 122.303C235.826 123.229 237.166 125.456 237.857 126.714C238.143 127.234 238.769 127.467 239.305 127.252C241.853 126.226 248.501 123.063 248.213 118.078C248.203 117.914 248.107 117.756 247.962 117.674C247.564 117.449 247.134 117.286 246.84 117.188C246.645 117.122 246.437 117.185 246.321 117.349Z" fill="#F5F5F5"/>
<path d="M230.697 125.431C231.486 124.424 232.868 122.933 234.532 122.303C233.466 121.447 232.443 119.101 232.986 117.119C233.074 116.796 232.806 116.469 232.47 116.5C232.128 116.531 231.784 116.605 231.62 116.643C231.554 116.659 231.496 116.686 231.443 116.726C230.773 117.241 226.147 121.034 229.082 125.338C229.468 125.906 230.29 125.953 230.697 125.431Z" fill="#F5F5F5"/>
<path opacity="0.2" d="M242.291 105.158L237.177 109.01C237.352 109.831 237.482 110.66 237.51 111.458C239.391 111.327 242.037 109.47 242.306 107.53C242.44 106.563 242.433 105.623 242.291 105.158Z" fill="black"/>
<path d="M231.837 100.481C229.317 99.9567 229.053 92.7826 230.231 91.0061C228.593 91.0271 226.038 88.9701 225.456 87.0791C227.243 87.1412 229.819 86.1232 230.231 85.3685C228.469 84.524 225.767 81.989 225.456 79.849C229.931 82.0309 233.351 82.176 234.91 81.989C234.91 81.989 233.414 80.5349 233.684 78.7891C236.946 80.5341 241.132 81.8431 245.652 81.6876C249.614 81.5507 251.668 84.7731 250.14 87.142C253.723 87.0485 251.23 97.1779 247.802 99.3284C244.561 101.042 238.726 101.915 231.837 100.481Z" fill="#263238"/>
<path d="M247.269 95.9466C246.516 101.851 246.376 105.348 243.18 108.168C238.372 112.412 231.223 109.151 230.194 103.125C229.268 97.7014 230.653 88.9573 236.617 87.029C242.493 85.1306 248.021 90.0427 247.269 95.9466Z" fill="#FF8B7B"/>
<path d="M245.589 87.7031C245.589 87.7031 241.881 89.137 242.909 92.9077C243.938 96.6791 243.782 98.3621 243.252 99.4841C243.626 100.668 246.711 101.202 246.711 101.202C246.711 101.202 249.298 95.7269 249.672 92.6504C250.046 89.5739 245.589 87.7031 245.589 87.7031Z" fill="#263238"/>
<path d="M248.524 86.8369C249.997 87.1054 252.166 84.6483 252.35 82.6519C252.35 82.6519 253.267 89.888 248.524 86.8369Z" fill="#263238"/>
<path d="M248.097 86.2863C248.841 89.4795 241.071 91.1318 230.973 90.882C230.973 90.882 230.911 87.017 233.965 85.4904C237.019 83.963 247.13 82.1408 248.097 86.2863Z" fill="#263238"/>
<path d="M249.7 101.964C248.863 103.328 247.47 104.172 246.181 104.451C244.242 104.871 243.373 103.107 243.996 101.338C244.556 99.7456 246.24 97.6086 248.146 97.9826C250.023 98.3514 250.657 100.405 249.7 101.964Z" fill="#FF8B7B"/>
<path d="M240.033 231.074C239.791 200.879 246.474 171.882 246.474 171.882L221.436 171.479C221.436 171.479 224.315 215.088 225.316 233.354C226.354 252.346 227.812 296.933 227.812 296.933L237.977 297.088C237.975 297.088 241.439 254.902 240.033 231.074Z" fill="#EA2329"/>
<path opacity="0.2" d="M241.027 188.496C233.891 198.265 237.1 216.643 240.024 229.629C240.017 213.487 241.924 197.816 243.667 186.88L241.027 188.496Z" fill="black"/>
<path d="M227.179 297.15L239.263 297.34L239.946 293.425L226.474 293.007L227.179 297.15Z" fill="#263238"/>
<path d="M239.372 96.9357C239.341 97.4189 239.059 97.7907 238.743 97.7675C238.427 97.7443 238.197 97.3337 238.228 96.8504C238.26 96.3672 238.542 95.9947 238.858 96.0187C239.173 96.0419 239.404 96.4525 239.372 96.9357Z" fill="#263238"/>
<path d="M232.695 96.5295C232.664 97.0127 232.382 97.3852 232.066 97.3612C231.751 97.3373 231.52 96.9274 231.552 96.4442C231.583 95.961 231.865 95.5885 232.181 95.6124C232.496 95.6356 232.727 96.0463 232.695 96.5295Z" fill="#263238"/>
<path d="M234.417 96.8989C234.417 96.8989 233.135 99.6029 231.838 100.857C232.641 101.718 234.119 101.462 234.119 101.462L234.417 96.8989Z" fill="#FF5652"/>
<path d="M236.07 102.905C237.925 102.795 238.861 101.582 238.904 101.525C238.951 101.463 238.938 101.374 238.875 101.326C238.813 101.278 238.724 101.29 238.676 101.352C238.666 101.367 237.572 102.774 235.457 102.616C235.379 102.611 235.311 102.669 235.306 102.747C235.301 102.826 235.361 102.894 235.438 102.9C235.661 102.917 235.871 102.917 236.07 102.905Z" fill="#263238"/>
<path d="M240.362 94.4304C240.409 94.4274 240.457 94.4132 240.499 94.3855C240.63 94.3003 240.667 94.1245 240.58 93.9921C239.715 92.6704 238.401 92.6494 238.346 92.6494C238.189 92.6487 238.062 92.7758 238.063 92.9329C238.064 93.0892 238.191 93.2172 238.347 93.2186C238.391 93.2194 239.415 93.2463 240.105 94.301C240.163 94.39 240.263 94.4364 240.362 94.4304Z" fill="#263238"/>
<path d="M230.503 94.0819C230.595 94.0872 230.687 94.0468 230.746 93.9675C231.486 92.9599 232.509 93.0011 232.553 93.0041C232.709 93.0123 232.842 92.8926 232.85 92.7363C232.857 92.5799 232.737 92.4461 232.582 92.4363C232.525 92.4341 231.215 92.366 230.286 93.6279C230.194 93.7543 230.221 93.9323 230.348 94.0258C230.395 94.0602 230.449 94.0789 230.503 94.0819Z" fill="#263238"/>
<path d="M228.677 304.94C228.727 304.924 228.765 304.88 228.774 304.827C228.783 304.767 228.753 304.708 228.7 304.68C228.43 304.535 226.037 303.274 225.301 303.669C225.159 303.745 225.075 303.874 225.06 304.043C225.034 304.326 225.12 304.56 225.315 304.739C225.963 305.332 227.688 305.123 228.658 304.945C228.665 304.944 228.671 304.942 228.677 304.94ZM225.487 303.897C225.942 303.747 227.242 304.266 228.187 304.735C226.858 304.935 225.871 304.862 225.507 304.529C225.379 304.412 225.325 304.261 225.343 304.069C225.35 303.995 225.378 303.95 225.435 303.918C225.451 303.91 225.468 303.903 225.487 303.897Z" fill="#EA2329"/>
<path d="M228.677 304.94C228.69 304.936 228.703 304.93 228.714 304.922C228.756 304.893 228.779 304.844 228.774 304.794C228.769 304.725 228.634 303.106 227.881 302.467C227.651 302.272 227.387 302.186 227.096 302.211C226.704 302.245 226.588 302.441 226.56 302.6C226.438 303.277 227.853 304.598 228.572 304.935C228.606 304.949 228.643 304.951 228.677 304.94ZM226.975 302.521C227.012 302.509 227.059 302.499 227.121 302.494C227.336 302.475 227.524 302.538 227.697 302.684C228.192 303.104 228.389 304.075 228.459 304.547C227.726 304.092 226.768 303.056 226.84 302.65C226.845 302.624 226.857 302.56 226.975 302.521Z" fill="#EA2329"/>
<path d="M269.497 305.194L263.49 305.099L261.508 291.172L267.515 291.266L269.497 305.194Z" fill="#FF8B7B"/>
<path d="M263.184 304.405L269.73 304.508C269.975 304.512 270.167 304.685 270.193 304.926L270.763 310.281C270.822 310.836 270.342 311.353 269.778 311.335C267.421 311.258 266.679 311.066 263.712 311.018C260.242 310.964 261.844 311.107 257.774 311.042C255.313 311.003 254.919 308.513 255.972 308.292C259.307 307.593 260.182 306.266 261.686 304.85C262.08 304.479 262.666 304.397 263.184 304.405Z" fill="#263238"/>
<path opacity="0.2" d="M261.51 291.176L262.53 298.355L268.539 298.449L267.519 291.271L261.51 291.176Z" fill="black"/>
<path d="M260.962 230.317C257.555 203.331 257.578 178.024 253.532 171.996L232.31 171.654C232.31 171.654 243.196 214.319 247.338 232.295C251.643 250.986 259.817 295.154 259.817 295.154L269.498 295.291C269.498 295.291 267.319 251.194 260.962 230.317Z" fill="#EA2329"/>
<path d="M258.479 297.15L270.563 297.34L271.245 293.425L257.773 293.007L258.479 297.15Z" fill="#263238"/>
<path d="M264.37 304.859C264.422 304.861 264.473 304.833 264.499 304.786C264.528 304.733 264.521 304.668 264.481 304.622C264.277 304.393 262.462 302.386 261.635 302.505C261.476 302.528 261.353 302.62 261.28 302.774C261.158 303.03 261.159 303.28 261.281 303.515C261.686 304.295 263.378 304.69 264.35 304.857C264.357 304.858 264.363 304.859 264.37 304.859ZM261.732 302.784C262.211 302.8 263.253 303.734 263.98 304.499C262.663 304.229 261.761 303.823 261.533 303.384C261.453 303.23 261.454 303.071 261.537 302.896C261.569 302.828 261.61 302.796 261.675 302.787C261.694 302.784 261.712 302.784 261.732 302.784Z" fill="#EA2329"/>
<path d="M264.37 304.859C264.383 304.86 264.397 304.858 264.41 304.855C264.46 304.842 264.498 304.804 264.511 304.755C264.53 304.689 264.959 303.122 264.471 302.263C264.322 302.001 264.104 301.829 263.822 301.753C263.443 301.649 263.267 301.795 263.185 301.934C262.839 302.528 263.714 304.254 264.274 304.817C264.3 304.843 264.334 304.858 264.37 304.859ZM263.601 302.003C263.64 302.004 263.688 302.011 263.747 302.027C263.956 302.084 264.111 302.207 264.223 302.403C264.544 302.968 264.397 303.947 264.299 304.416C263.768 303.736 263.223 302.434 263.431 302.077C263.444 302.055 263.477 301.999 263.601 302.003Z" fill="#EA2329"/>
<path d="M258.969 123.628C261.056 127.365 262.939 131.097 264.753 134.932C266.532 138.778 268.228 142.664 269.71 146.732C270.077 147.75 270.434 148.778 270.767 149.831L271.029 150.646C271.157 151.073 271.261 151.508 271.33 151.944C271.469 152.815 271.494 153.684 271.411 154.498C271.246 156.136 270.748 157.543 270.16 158.763C269.572 159.99 268.85 161.036 268.107 162C266.612 163.92 264.937 165.48 263.194 166.882C262.325 167.586 261.425 168.232 260.505 168.844C259.577 169.464 258.683 170.028 257.645 170.588L255.026 166.919C255.667 166.251 256.395 165.51 257.053 164.785C257.719 164.049 258.36 163.298 258.984 162.552C260.219 161.053 261.342 159.505 262.193 157.985C263.034 156.48 263.554 154.925 263.448 154.026C263.426 153.803 263.394 153.625 263.338 153.474C263.313 153.399 263.278 153.331 263.245 153.263L262.978 152.611C262.619 151.702 262.227 150.79 261.822 149.876C260.223 146.214 258.411 142.548 256.58 138.899C254.747 135.255 252.851 131.572 250.982 127.989L258.969 123.628Z" fill="#FF8B7B"/>
<path d="M257.309 120.085C262.852 121.801 267.442 136.277 267.442 136.277L255.373 143.04C255.373 143.04 252.038 136.946 249.414 129.912C246.556 122.249 250.594 118.007 257.309 120.085Z" fill="#263238"/>
<path d="M256.811 166.002L251.137 168.173L255.543 173.976C255.543 173.976 260.443 171.386 259.487 168.561L256.811 166.002Z" fill="#FF8B7B"/>
<path d="M248.519 173.914L250.406 175.688C251.157 176.394 252.31 176.451 253.128 175.825L255.543 173.975L251.137 168.172L248.457 170.906C247.631 171.749 247.659 173.106 248.519 173.914Z" fill="#FF8B7B"/>
<path d="M142.117 88.814H135.634V89.562H142.117V88.814Z" fill="#EA2329"/>
<path d="M128.278 88.814H113.817V89.562H128.278V88.814Z" fill="#EA2329"/>
<path d="M192.525 272.774H106.52C101.4 272.774 96.9242 268.586 96.5718 263.467L85.3683 100.739C85.016 95.6209 88.9161 91.4321 94.0346 91.4321H180.039C185.157 91.4321 189.634 95.6202 189.987 100.739L201.19 263.467C201.543 268.586 197.643 272.774 192.525 272.774Z" fill="#F5F5F5"/>
<path d="M180.04 92.1801C184.786 92.1801 188.915 96.0428 189.242 100.79L200.445 263.518C200.601 265.789 199.859 267.926 198.356 269.537C196.858 271.141 194.787 272.026 192.525 272.026H106.52C101.773 272.026 97.6445 268.163 97.3176 263.415L86.1141 100.688C85.9577 98.4169 86.6997 96.2792 88.2032 94.6687C89.7015 93.0635 91.7719 92.1801 94.0339 92.1801H180.04ZM180.04 91.4321H94.0346C88.9161 91.4321 85.016 95.6202 85.3683 100.739L96.5718 263.467C96.9242 268.586 101.401 272.774 106.52 272.774H192.524C197.642 272.774 201.542 268.586 201.19 263.467L189.987 100.739C189.635 95.6209 185.158 91.4321 180.04 91.4321Z" fill="#EA2329"/>
<path d="M196.098 272.774H110.093C104.974 272.774 100.498 268.586 100.146 263.467L88.942 100.739C88.5897 95.6209 92.4898 91.4321 97.6084 91.4321H183.613C188.732 91.4321 193.208 95.6202 193.56 100.739L204.764 263.467C205.116 268.586 201.217 272.774 196.098 272.774Z" fill="#EA2329"/>
<path d="M166.169 168.406H127.756C125.983 168.406 124.407 167.062 124.111 165.298L119.974 140.658C119.634 138.629 121.106 136.87 123.144 136.87H166.436C168.475 136.87 170.189 138.629 170.128 140.658L169.385 165.298C169.333 167.062 167.941 168.406 166.169 168.406Z" fill="#F5F5F5"/>
<path d="M166.169 169.528H127.756C125.434 169.528 123.391 167.789 123.004 165.483L118.867 140.844C118.65 139.545 118.997 138.241 119.821 137.266C120.637 136.302 121.848 135.75 123.144 135.75H166.436C167.713 135.75 168.968 136.289 169.882 137.23C170.79 138.166 171.289 139.427 171.25 140.693L170.507 165.333C170.436 167.685 168.531 169.528 166.169 169.528ZM123.145 137.992C122.501 137.992 121.93 138.249 121.535 138.715C121.131 139.192 120.971 139.816 121.081 140.472L125.218 165.112C125.422 166.329 126.537 167.283 127.757 167.283H166.169C167.329 167.283 168.23 166.415 168.264 165.263L169.008 140.624C169.028 139.961 168.76 139.294 168.272 138.791C167.78 138.284 167.111 137.993 166.438 137.993L123.145 137.992Z" fill="#F5F5F5"/>
<path d="M169.387 166.419C169.375 166.419 169.363 166.419 169.352 166.418C168.733 166.4 168.246 165.883 168.265 165.263L169.395 127.797C169.408 127.385 169.643 127.014 170.011 126.829C170.377 126.644 170.817 126.673 171.155 126.907L177.9 131.574C178.41 131.927 178.538 132.625 178.185 133.135C177.832 133.645 177.133 133.773 176.624 133.42L171.575 129.927L170.507 165.33C170.489 165.939 169.99 166.419 169.387 166.419Z" fill="#F5F5F5"/>
<path d="M141.649 184.426C144.006 181.986 143.798 177.961 141.184 175.436C138.57 172.911 134.54 172.842 132.183 175.281C129.826 177.721 130.034 181.746 132.648 184.272C135.262 186.797 139.292 186.866 141.649 184.426Z" fill="#F5F5F5"/>
<path d="M137.353 186.712C133.596 186.712 130.328 183.655 130.069 179.899C129.942 178.061 130.542 176.331 131.757 175.03C132.969 173.733 134.645 173.017 136.478 173.017C140.235 173.017 143.503 176.074 143.761 179.831C143.887 181.668 143.288 183.398 142.073 184.699C140.862 185.997 139.185 186.712 137.353 186.712ZM136.478 173.996C134.92 173.996 133.497 174.601 132.472 175.697C131.444 176.799 130.937 178.267 131.045 179.831C131.269 183.086 134.098 185.733 137.353 185.733C138.912 185.733 140.334 185.129 141.358 184.032C142.385 182.93 142.893 181.464 142.785 179.899C142.561 176.643 139.731 173.996 136.478 173.996Z" fill="#F5F5F5"/>
<path d="M162.64 184.426C164.997 181.986 164.789 177.961 162.175 175.436C159.561 172.91 155.531 172.841 153.174 175.281C150.817 177.721 151.025 181.746 153.639 184.271C156.253 186.796 160.283 186.866 162.64 184.426Z" fill="#F5F5F5"/>
<path d="M158.344 186.712C154.587 186.712 151.319 183.655 151.061 179.899C150.935 178.061 151.534 176.331 152.749 175.03C153.96 173.733 155.637 173.017 157.469 173.017C161.226 173.017 164.494 176.074 164.753 179.831C164.88 181.668 164.28 183.398 163.065 184.699C161.853 185.997 160.177 186.712 158.344 186.712ZM157.469 173.996C155.91 173.996 154.488 174.601 153.464 175.697C152.437 176.799 151.929 178.267 152.037 179.831C152.262 183.086 155.091 185.733 158.345 185.733C159.903 185.733 161.326 185.129 162.351 184.032C163.378 182.93 163.885 181.462 163.778 179.899C163.553 176.643 160.724 173.996 157.469 173.996Z" fill="#F5F5F5"/>
<path d="M155.526 138.865C161.362 132.824 160.847 122.859 154.375 116.607C147.904 110.355 137.926 110.184 132.09 116.225C126.254 122.266 126.769 132.231 133.241 138.483C139.712 144.735 149.69 144.906 155.526 138.865Z" fill="#EA2329"/>
<path d="M144.677 140.761C137.416 140.761 131.102 134.855 130.602 127.593C130.359 124.052 131.513 120.722 133.852 118.216C136.183 115.719 139.412 114.344 142.941 114.344C150.203 114.344 156.517 120.25 157.016 127.512C157.26 131.053 156.106 134.383 153.767 136.888C151.436 139.385 148.207 140.761 144.677 140.761ZM142.941 115.542C139.747 115.542 136.83 116.782 134.728 119.034C132.617 121.294 131.578 124.305 131.798 127.512C132.255 134.157 138.033 139.563 144.677 139.563C147.871 139.563 150.789 138.322 152.891 136.07C155.001 133.81 156.041 130.8 155.821 127.593C155.363 120.948 149.585 115.542 142.941 115.542Z" fill="#F5F5F5"/>
<path d="M135.016 126.936C135.016 126.936 140.526 129.912 143.101 133.746C144.494 130.754 146.613 126.592 152.354 121.916C145.072 125 142.836 129.908 142.836 129.908C142.836 129.908 139.853 127.44 135.016 126.936Z" fill="#F5F5F5"/>
<path d="M152.754 268.005C149.615 268.005 146.885 265.451 146.669 262.313C146.564 260.784 147.062 259.346 148.071 258.265C149.077 257.188 150.47 256.594 151.995 256.594C155.134 256.594 157.864 259.148 158.08 262.287C158.185 263.815 157.687 265.253 156.678 266.334C155.671 267.411 154.278 268.005 152.754 268.005ZM151.994 256.967C150.575 256.967 149.278 257.519 148.344 258.52C147.407 259.524 146.944 260.862 147.042 262.286C147.245 265.233 149.808 267.63 152.754 267.63C154.173 267.63 155.469 267.079 156.404 266.077C157.342 265.073 157.805 263.735 157.707 262.312C157.503 259.365 154.941 256.967 151.994 256.967Z" fill="#F5F5F5"/>
<path d="M158.964 208.619L151.29 210.625L134.698 225.519L151.222 239.286L165.232 226.67C167.314 224.778 168.511 222.093 168.565 219.192L174.561 215.955C177.028 214.623 177.531 211.299 175.61 209.016L171.082 203.632C169.233 201.434 165.981 201.214 164.136 203.162L158.964 208.619Z" fill="#EA2329"/>
<path d="M151.229 239.704L134.215 225.528L151.209 210.32L158.796 208.336L163.904 202.945C164.815 201.984 166.068 201.473 167.437 201.518C168.922 201.562 170.338 202.259 171.322 203.43L175.851 208.814C176.872 210.028 177.295 211.579 177.012 213.07C176.753 214.43 175.914 215.583 174.71 216.233L168.876 219.384C168.774 222.317 167.559 224.982 165.444 226.904L151.229 239.704ZM135.181 225.51L151.213 238.867L165.02 226.435C167.049 224.591 168.196 222.017 168.25 219.187L168.253 219.003L174.41 215.678C175.461 215.11 176.165 214.142 176.392 212.951C176.64 211.648 176.267 210.287 175.368 209.219L170.839 203.836C169.971 202.803 168.724 202.188 167.418 202.149C166.245 202.101 165.148 202.55 164.363 203.378L159.131 208.901L151.443 210.912L135.181 225.51Z" fill="#F5F5F5"/>
<path d="M167.375 226.284L166.411 225.519L150.899 213.127C148.838 211.48 146.463 210.296 143.949 209.661L139.817 208.619L133.896 203.162C131.782 201.214 128.56 201.434 127.014 203.632L123.227 209.016C121.62 211.299 122.581 214.623 125.231 215.955L131.673 219.192C132.126 222.093 133.693 224.778 136.036 226.67L151.783 239.286L151.791 239.278L153.044 240.287C154.202 241.205 155.853 241.067 156.695 239.902C157.491 238.8 157.119 237.176 155.98 236.272L157.535 237.506C158.518 238.286 159.895 238.39 160.813 237.66C162.086 236.646 161.974 234.684 160.649 233.632L161.518 234.323C162.501 235.103 163.878 235.208 164.796 234.477C166.069 233.463 165.956 231.501 164.632 230.45L164.44 230.298C165.598 231.216 167.249 231.078 168.09 229.913C168.886 228.812 168.514 227.188 167.375 226.284Z" fill="#F5F5F5"/>
<path d="M160.129 215.95C160.129 215.95 157.821 217.852 154.049 218.213C154.049 218.213 150.899 218.239 149.233 219.919C147.013 222.159 142.528 223.472 141.457 221.155C140.917 219.986 144.966 217.355 147.086 213.112C148.573 210.135 153.342 209.083 158.965 208.618" fill="#EA2329"/>
<path d="M143.761 222.628C143.513 222.628 143.275 222.609 143.05 222.569C142.181 222.417 141.551 221.964 141.226 221.262C140.89 220.535 141.737 219.603 143.018 218.19C144.255 216.827 145.794 215.129 146.859 212.999C148.538 209.638 154.2 208.757 158.944 208.366L158.986 208.873C154.375 209.254 148.88 210.093 147.314 213.227C146.219 215.42 144.654 217.145 143.395 218.533C142.375 219.658 141.495 220.629 141.689 221.05C141.944 221.601 142.431 221.944 143.139 222.069C144.829 222.368 147.485 221.323 149.053 219.741C150.773 218.006 153.915 217.96 154.048 217.959C157.669 217.612 159.945 215.772 159.968 215.754L160.292 216.147C160.195 216.226 157.881 218.102 154.075 218.467C154.022 218.469 150.986 218.515 149.415 220.099C147.919 221.607 145.575 222.628 143.761 222.628Z" fill="#F5F5F5"/>
<path d="M137.327 230.298L139.825 228.074C140.943 227.078 140.861 225.267 139.65 224.216C138.639 223.34 137.184 223.306 136.25 224.136L133.752 226.361C132.634 227.357 132.716 229.168 133.927 230.218C134.938 231.095 136.394 231.129 137.327 230.298Z" fill="#EA2329"/>
<path d="M135.717 231.213C135.016 231.213 134.3 230.96 133.721 230.457C133.044 229.871 132.654 229.038 132.648 228.171C132.643 227.369 132.961 226.642 133.543 226.125L136.04 223.9C137.088 222.966 138.73 223 139.856 223.977C140.533 224.563 140.923 225.395 140.929 226.263C140.934 227.064 140.617 227.791 140.035 228.309L137.537 230.534C137.028 230.988 136.379 231.213 135.717 231.213ZM137.86 223.853C137.348 223.853 136.85 224.025 136.46 224.373L133.962 226.598C133.518 226.992 133.276 227.55 133.279 228.168C133.284 228.853 133.595 229.514 134.134 229.981C135.023 230.752 136.305 230.786 137.117 230.063L139.616 227.838C140.06 227.442 140.302 226.885 140.299 226.268C140.294 225.582 139.982 224.922 139.444 224.455C138.981 224.054 138.413 223.853 137.86 223.853Z" fill="#F5F5F5"/>
<path d="M140.731 234.387L143.751 231.698C144.814 230.751 144.8 229.05 143.719 227.973C142.718 226.976 141.162 226.883 140.176 227.76L137.156 230.449C136.038 231.445 136.12 233.257 137.331 234.307C138.342 235.184 139.797 235.218 140.731 234.387Z" fill="#EA2329"/>
<path d="M139.12 235.302C138.42 235.302 137.704 235.049 137.124 234.546C136.448 233.96 136.057 233.126 136.051 232.26C136.046 231.458 136.364 230.731 136.946 230.214L139.966 227.525C141.075 226.537 142.821 226.636 143.941 227.751C144.543 228.35 144.875 229.165 144.853 229.986C144.832 230.747 144.515 231.439 143.96 231.933L140.94 234.622C140.432 235.076 139.782 235.302 139.12 235.302ZM141.785 227.475C141.275 227.475 140.778 227.647 140.385 227.997L137.366 230.686C136.921 231.081 136.678 231.639 136.683 232.256C136.687 232.941 136.998 233.602 137.538 234.069C138.426 234.839 139.708 234.875 140.521 234.151L143.54 231.462C143.964 231.085 144.206 230.554 144.222 229.968C144.24 229.321 143.976 228.675 143.496 228.198C143.015 227.72 142.392 227.475 141.785 227.475Z" fill="#F5F5F5"/>
<path d="M145.152 237.57L147.651 235.346C148.769 234.35 148.687 232.539 147.476 231.488C146.465 230.612 145.01 230.578 144.076 231.408L141.578 233.633C140.459 234.629 140.542 236.44 141.753 237.49C142.763 238.367 144.22 238.401 145.152 237.57Z" fill="#EA2329"/>
<path d="M143.543 238.484C142.842 238.484 142.126 238.232 141.546 237.729C140.87 237.142 140.48 236.31 140.474 235.443C140.468 234.642 140.786 233.915 141.368 233.396L143.866 231.172C144.915 230.238 146.556 230.272 147.682 231.249C148.358 231.835 148.749 232.668 148.755 233.535C148.76 234.336 148.443 235.063 147.861 235.581L145.363 237.806C144.853 238.259 144.205 238.484 143.543 238.484ZM145.686 231.124C145.174 231.124 144.676 231.296 144.286 231.644L141.787 233.868C141.343 234.264 141.101 234.822 141.104 235.439C141.109 236.124 141.421 236.785 141.959 237.252C142.848 238.023 144.13 238.057 144.942 237.334L147.441 235.109C147.885 234.714 148.127 234.156 148.123 233.539C148.119 232.854 147.807 232.193 147.269 231.726C146.807 231.326 146.239 231.124 145.686 231.124Z" fill="#F5F5F5"/>
<path d="M150.097 240.287L152.683 237.949C153.821 236.92 153.68 235.049 152.389 234.035C151.383 233.246 150.005 233.249 149.112 234.044L146.522 236.35C145.404 237.346 145.486 239.158 146.697 240.208C147.708 241.084 149.164 241.118 150.097 240.287Z" fill="#EA2329"/>
<path d="M148.488 241.201C147.787 241.201 147.071 240.948 146.491 240.446C145.815 239.86 145.425 239.027 145.419 238.16C145.413 237.359 145.73 236.632 146.312 236.114L148.903 233.807C149.91 232.913 151.457 232.903 152.584 233.786C153.305 234.352 153.737 235.188 153.768 236.078C153.797 236.888 153.478 237.655 152.895 238.183L150.307 240.522C149.798 240.976 149.149 241.201 148.488 241.201ZM150.715 233.761C150.206 233.761 149.711 233.934 149.323 234.279L146.733 236.586C146.288 236.982 146.046 237.539 146.05 238.156C146.054 238.841 146.366 239.502 146.905 239.968C147.793 240.74 149.075 240.774 149.887 240.051L152.471 237.715C152.923 237.306 153.16 236.733 153.138 236.101C153.113 235.397 152.769 234.735 152.195 234.283C151.75 233.934 151.225 233.761 150.715 233.761Z" fill="#F5F5F5"/>
<g opacity="0.2">
<path d="M108.689 252.384C106.032 252.384 103.721 250.222 103.538 247.565L93.7943 106.041C93.611 103.383 95.6247 101.222 98.2823 101.222H184.287C186.945 101.222 189.255 103.384 189.438 106.041L199.182 247.565C199.365 250.223 197.352 252.384 194.694 252.384H108.689Z" fill="white"/>
<path d="M194.694 252.571H108.689C105.935 252.571 103.541 250.331 103.352 247.578L93.6082 106.053C93.5162 104.713 93.9538 103.452 94.8402 102.502C95.7243 101.555 96.9466 101.033 98.2825 101.033H184.288C187.041 101.033 189.435 103.273 189.625 106.027L199.368 247.551C199.46 248.891 199.022 250.152 198.136 251.102C197.252 252.049 196.03 252.571 194.694 252.571ZM98.2825 101.407C97.052 101.407 95.9263 101.887 95.114 102.757C94.2986 103.631 93.8962 104.793 93.9815 106.027L103.725 247.551C103.901 250.113 106.128 252.197 108.689 252.197H194.694C195.925 252.197 197.05 251.717 197.862 250.847C198.678 249.973 199.079 248.812 198.995 247.578L189.251 106.053C189.075 103.491 186.848 101.407 184.288 101.407H98.2825Z" fill="#F5F5F5"/>
</g>
</svg>
