<?xml version="1.0" standalone="no"?>
<!DOCTYPE svg PUBLIC "-//W3C//DTD SVG 20010904//EN"
 "http://www.w3.org/TR/2001/REC-SVG-20010904/DTD/svg10.dtd">
<svg version="1.0" xmlns="http://www.w3.org/2000/svg"
 width="2481.000000pt" height="2039.000000pt" viewBox="0 0 2481.000000 2039.000000"
 preserveAspectRatio="xMidYMid meet">

<g transform="translate(0.000000,2039.000000) scale(0.100000,-0.100000)"
fill="#000000" stroke="none">
<path d="M9471 10199 c-1134 -1843 -2061 -3352 -2059 -3354 2 -2 62 31 133 72
227 131 561 311 840 454 2816 1439 5723 2035 8780 1799 72 -6 150 -13 175 -16
99 -13 21 9 -201 56 -727 153 -1461 259 -2179 314 -707 55 -1476 55 -2180 0
-975 -75 -2025 -277 -2933 -565 -87 -28 -163 -49 -167 -47 -8 3 1575 2557
1599 2581 4 4 119 -198 254 -450 341 -636 492 -910 536 -968 21 -28 58 -64 81
-80 l44 -30 135 2 c144 3 222 8 746 49 182 14 337 29 346 32 14 6 -148 312
-927 1752 -519 960 -948 1746 -952 1748 -5 1 -937 -1506 -2071 -3349z"/>
</g>
</svg>
