<?xml version="1.0" encoding="UTF-8"?>
<svg id="Layer_2" data-name="Layer 2" xmlns="http://www.w3.org/2000/svg" viewBox="0 0 23.06 9.03">
  <defs>
    <style>
      .cls-1 {
        fill: #fff;
      }

      .cls-2 {
        fill: #e71f20;
      }
    </style>
  </defs>
  <g id="Layer_1-2" data-name="Layer 1">
    <g>
      <g>
        <path class="cls-1" d="m3.36,7.06c.17-.24.34-.48.51-.71.26-.34.53-.66.82-.98l-.16-2.31h-1.44l-1.41,2.91-.11-2.91H0l.41,5.91h1.27l1.59-3.28.09,1.36Z"/>
        <path class="cls-1" d="m3.55,8.08s-.07.08-.11.12l.05.77h1.28l1.76-3.64c-.23.17-.44.34-.65.5-1.03.84-1.84,1.69-2.34,2.25Z"/>
        <path class="cls-1" d="m7.36,3.06h-1.31l-.76,1.69c.12-.12.25-.24.37-.35.53-.48,1.1-.93,1.7-1.33Z"/>
        <path class="cls-1" d="m7.52,4.65l-.9,4.32h1.5l1.09-5.26c-.61.28-1.18.6-1.7.94Z"/>
        <path class="cls-1" d="m12.97,2.97l-.65,3.14-1.39-3.05h0c-.49.14-.97.32-1.42.52l-1.12,5.39h1.47l.63-3.05,1.39,3.05h1.33l1.21-5.86-.61-.44-.83.3Z"/>
        <path class="cls-1" d="m12.68,2.47l.21-.67-.53-.69c-2.24.53-7.05,2.29-9.85,7.86,0,0,4.23-5.87,10.17-6.5Z"/>
        <polygon class="cls-2" points="15.55 1.32 14.52 1.02 14.18 0 13.58 .89 12.5 .9 13.16 1.75 12.83 2.77 13.84 2.41 14.72 3.04 14.69 1.96 15.55 1.32"/>
      </g>
      <g>
        <g>
          <path class="cls-1" d="m16.13,3.05l-1,4.77h2.83l-.23,1.08h-4.12l1.22-5.86h1.3Z"/>
          <path class="cls-1" d="m17.83,9.03h-4.37l1.27-6.11h1.55l-.03.15-.97,4.62h2.83l-.28,1.33Zm-4.07-.25h3.86l.18-.83h-2.83l.03-.15.97-4.62h-1.04l-1.17,5.61Z"/>
        </g>
        <g>
          <path class="cls-1" d="m17.26,3.05h1.32l.88,2.49,1.82-2.49h1.52l-2.86,3.64-.45,2.21h-1.3l.47-2.27-1.4-3.58Z"/>
          <path class="cls-1" d="m19.6,9.03h-1.55l.49-2.39-1.46-3.72h1.59l.83,2.35,1.72-2.35h1.84l-3,3.82-.46,2.29Zm-1.25-.25h1.04l.46-2.17,2.7-3.44h-1.2l-1.92,2.63-.93-2.63h-1.05l1.35,3.45v.04s-.44,2.12-.44,2.12Z"/>
        </g>
      </g>
    </g>
  </g>
</svg>